HIERARCHY
ROOT Hips
{
    OFFSET 0.000000 0.000000 0.000000
    CHANNELS 6 Xposition Yposition Zposition Zrotation Xrotation Yrotation
        JOINT Chest
        {
            OFFSET -0.000000 31.780966 -0.000000
            CHANNELS 3 Zrotation Xrotation Yrotation
            JOINT Neck
            {
                OFFSET -0.000000 23.880144 0.000000
                CHANNELS 3 Zrotation Xrotation Yrotation
                JOINT Head
                {
                    OFFSET -0.000000 10.511110 0.000000
                    CHANNELS 3 Zrotation Xrotation Yrotation
                    End Site
                    {
                        OFFSET -0.000000 16.244448 0.000000
                    }
                }
            }
            JOINT LeftCollar
            {
                OFFSET -0.000000 23.880144 0.000000
                CHANNELS 3 Zrotation Xrotation Yrotation
                JOINT LeftShoulder
                {
                    OFFSET 19.111111 -0.000000 0.000000
                    CHANNELS 3 Zrotation Xrotation Yrotation
                    JOINT LeftElbow
                    {
                        OFFSET 21.456259 0.000000 0.000000
                        CHANNELS 3 Zrotation Xrotation Yrotation
                        JOINT LeftWrist
                        {
                            OFFSET 25.693237 0.000000 0.000000
                            CHANNELS 3 Zrotation Xrotation Yrotation
                            End Site
                            {
                                OFFSET 0.000000 -14.333333 0.000000
                            }
                        }
                    }
                }
            }
            JOINT RightCollar
            {
                OFFSET -0.000000 23.880144 0.000000
                CHANNELS 3 Zrotation Xrotation Yrotation
                JOINT RightShoulder
                {
                    OFFSET -19.111111 0.000000 0.000000
                    CHANNELS 3 Zrotation Xrotation Yrotation
                    JOINT RightElbow
                    {
                        OFFSET -21.456259 0.000000 0.000000
                        CHANNELS 3 Zrotation Xrotation Yrotation
                        JOINT RightWrist
                        {
                            OFFSET -25.693237 0.000000 0.000000
                            CHANNELS 3 Zrotation Xrotation Yrotation
                            End Site
                            {
                                OFFSET -0.000000 -14.333333 0.000000
                            }
                        }
                    }
                }
            }
        }
    JOINT LeftHip
    {
        OFFSET 11.466667 0.000000 0.000000
        CHANNELS 3 Zrotation Xrotation Yrotation
        JOINT LeftKnee
        {
            OFFSET -0.000000 -37.225342 0.000000
            CHANNELS 3 Zrotation Xrotation Yrotation
            JOINT LeftAnkle
            {
                OFFSET -0.000000 -35.678333 0.000000
                CHANNELS 3 Zrotation Xrotation Yrotation
                End Site
                {
                    OFFSET -0.000000 -4.777778 16.244448
                }
            }
        }
    }
    JOINT RightHip
    {
        OFFSET -11.466667 0.000000 0.000000
        CHANNELS 3 Zrotation Xrotation Yrotation
        JOINT RightKnee
        {
            OFFSET -0.000000 -37.225342 0.000000
            CHANNELS 3 Zrotation Xrotation Yrotation
            JOINT RightAnkle
            {
                OFFSET -0.000000 -35.678333 0.000000
                CHANNELS 3 Zrotation Xrotation Yrotation
                End Site
                {
                    OFFSET -0.000000 -4.777778 16.244448
                }
            }
        }
    }
}
MOTION
Frames:    8
Frame Time:    0.010000
45.649731    84.127098    19.791399    2.296052    -2.113094    -62.290760    0.329357    6.407865    0.321183    11.586267    1.621467    13.783599    -16.056423    -2.315494    13.626933    -16.083401    -1.287878    9.203617    -19.363337    52.280327    -48.157574    23.182808    -18.906904    -77.673157    126.380585    3.761029    -2.631651    18.309368    -0.152550    -1.100204    44.718956    28.792904    8.851520    14.283417    12.629792    83.096909    -99.234955    -11.571795    0.072851    -2.722885    -6.326431    3.366091    -1.340379    16.701725    7.203153    5.728972    -10.713257    15.426159    -11.920027    -12.316399    -2.379399    8.032895    39.819809    -18.295853    9.721148    -7.282974    -14.891792    
45.686424    84.106445    19.476370    2.681509    -2.116057    -62.651134    0.247133    5.948960    0.428430    11.526176    1.742016    13.955277    -16.118032    -2.758478    13.748904    -16.036110    -1.280195    9.257603    -19.253853    52.296455    -48.481323    23.336905    -19.002905    -77.731087    127.834671    3.432093    -3.939285    18.281580    -0.191615    -0.985140    44.878101    29.010712    8.938630    14.155116    12.509480    83.340172    -99.455360    -11.564652    0.333143    -2.734453    -6.771678    3.254668    -1.340200    16.734566    7.678170    5.356940    -10.843790    15.427899    -11.759828    -11.924766    -2.613724    7.297894    38.719551    -17.356434    10.209198    -7.857082    -15.015234    
45.720470    84.071823    19.145826    3.048692    -2.140241    -63.020794    0.141192    5.536278    0.550176    11.447150    1.855739    14.126735    -16.140179    -3.247207    13.860316    -15.976575    -1.298832    9.269312    -19.247355    52.253757    -48.661873    23.394724    -19.008089    -77.833344    129.325424    2.996085    -5.181966    18.271471    -0.147212    -0.861541    44.996910    29.138823    9.076545    14.062047    12.493813    83.509468    -99.739532    -11.555834    0.494953    -2.705622    -7.301588    3.185081    -1.373085    16.991076    8.103231    4.917934    -11.059406    15.456767    -11.551434    -11.548919    -2.749751    6.568653    37.528259    -16.438242    10.481504    -8.535923    -15.091671    
45.753311    84.024010    18.801744    3.389161    -2.183491    -63.398121    0.015047    5.182643    0.686383    11.354324    1.915503    14.280197    -16.123554    -3.735747    13.948496    -15.914738    -1.268741    9.197484    -19.291893    52.095604    -48.760197    23.280546    -18.869516    -78.014252    130.887802    2.494666    -6.301118    18.269478    -0.112916    -0.786064    45.075630    29.272047    9.280931    13.897586    12.340810    83.753670    -99.835480    -11.528172    0.693464    -2.627393    -7.921492    3.151689    -1.452574    17.492907    8.491013    4.438531    -11.362271    15.503060    -11.299588    -11.204656    -2.765810    5.886863    36.299191    -15.609358    10.497851    -9.267561    -15.129211    
45.786961    83.963570    18.447323    3.694082    -2.242537    -63.779396    -0.123461    4.888383    0.835118    11.253628    1.973991    14.451289    -16.085470    -4.240204    14.054551    -15.847146    -1.277896    9.100057    -19.390781    51.902889    -48.801872    23.149712    -18.789700    -78.153000    132.224319    1.737176    -7.319539    18.277128    -0.078746    -0.668394    45.140247    29.397928    9.480318    13.693980    12.175746    84.003181    -99.911751    -11.506763    0.792220    -2.491844    -8.632317    3.136486    -1.594117    18.252432    8.860601    3.945867    -11.748628    15.559867    -11.010851    -10.908272    -2.650016    5.283729    35.094734    -14.924706    10.247609    -10.000720    -15.141359    
45.823570    83.890739    18.087011    3.954250    -2.313909    -64.159058    -0.263558    4.664284    0.991755    11.154636    1.994518    14.626162    -16.032566    -4.735320    14.161860    -15.786609    -1.248257    8.942548    -19.527063    51.606064    -48.787308    22.906958    -18.574503    -78.341690    133.552673    0.992571    -8.144255    18.283278    -0.113078    -0.554592    45.199425    29.579166    9.665263    13.408060    11.908833    84.312920    -99.893463    -11.490423    0.825775    -2.293970    -9.426295    3.108082    -1.814857    19.264698    9.240182    3.466749    -12.205033    15.620676    -10.693772    -10.673353    -2.402481    4.778858    33.979156    -14.421268    9.751794    -10.692296    -15.141200    
45.865227    83.805420    17.726274    4.161058    -2.394377    -64.530846    -0.395239    4.514664    1.150406    11.067330    1.983580    14.813501    -15.979802    -5.209283    14.282609    -15.734979    -1.205554    8.735109    -19.686953    51.235397    -48.760765    22.618620    -18.358812    -78.523041    134.714417    0.185642    -8.829108    18.283194    -0.078812    -0.428676    45.226280    29.694250    9.878351    13.170906    11.770800    84.539917    -100.041893    -11.513700    0.662848    -2.032901    -10.285025    3.025025    -2.133835    20.501722    9.665226    3.026296    -12.706555    15.679969    -10.358864    -10.509706    -2.035208    4.382159    33.012627    -14.111719    9.059907    -11.313781    -15.141982    
45.913841    83.707329    17.371277    4.308513    -2.481544    -64.888412    -0.509285    4.443250    1.303345    11.000581    1.927176    15.010702    -15.937161    -5.640342    14.415339    -15.694386    -1.171120    8.470201    -19.860369    50.822765    -48.736443    22.313532    -18.143345    -78.693924    135.719421    -0.585084    -9.350432    18.268244    -0.058933    -0.306015    45.214790    29.854073    10.125455    12.867548    11.504902    84.840858    -100.056953    -11.548205    0.497242    -1.713299    -11.181602    2.842477    -2.570872    21.912868    10.173079    2.645503    -13.218186    15.732725    -10.019599    -10.423573    -1.572289    4.096677    32.246082    -13.981779    8.242610    -11.854145    -15.157545    
